<svg id="Layer_5" enable-background="new 0 0 64 64" height="512" viewBox="0 0 64 64" width="512" xmlns="http://www.w3.org/2000/svg"><path d="m57.688 22.274-2.092-2.092 6.934-4.333-1.06-1.696-9.066 5.667 1.908 1.908-3.24 1.62c.746.341 1.463.728 2.141 1.166z"/><path d="m52.869 14h-3.426l2.494-6.649-1.874-.702-3.506 9.351h2.574l-3.562 5.344 1.951.678z"/><path d="m32 14.964c6.468-1.775 11.863-6.085 15.039-11.964h-30.078c3.176 5.879 8.571 10.189 15.039 11.964zm0-6.964c2.243 0 4 1.318 4 3h-2c0-.408-.779-1-2-1s-2 .592-2 1h-2c0-1.682 1.757-3 4-3z"/><path d="m53.213 24.512-6.765 3.383-.895-1.789 5.519-2.759c-.484-.221-.977-.429-1.487-.606l-2.065-.718-1.688 2.532-1.664-1.109 1.401-2.102-3.54-1.231c-2.329-.81-3.905-2.969-4.009-5.416-1.808.968-3.737 1.737-5.765 2.271l-.255.066-.254-.067c-2.028-.534-3.958-1.303-5.765-2.271-.104 2.447-1.68 4.606-4.009 5.416l-7.556 2.628c-6.829 2.375-11.416 8.828-11.416 16.057v13.203c0 4.962 4.038 9 9 9h2 1.607l13.933-12.937 4.399-.733c1.034-.172 1.972-.655 2.713-1.396l8.02-8.02c.211-.212.328-.493.328-.793 0-.618-.503-1.121-1.121-1.121-.3 0-.581.117-.793.328l-6.379 6.379-1.414-1.414 6.379-6.379 2-2c.211-.212.328-.493.328-.793 0-.618-.503-1.121-1.121-1.121-.3 0-.581.117-.793.328l-8.379 8.379-1.414-1.414 8.379-8.379 2-2c.211-.212.328-.493.328-.793 0-.618-.503-1.121-1.121-1.121-.3 0-.581.117-.793.328l-3 3-7.379 7.379-1.414-1.414 7.379-7.379c.211-.212.328-.493.328-.793 0-.618-.503-1.121-1.121-1.121-.3 0-.581.117-.793.328l-5.086 5.086-4.293 4.293-.051.051-1.414-1.414.051-.051 3.707-3.707v-.461c0-1.623-.805-3.13-2.152-4.032-.342-.229-.848.043-.848.451v1.031c0 1.831-.713 3.552-2.007 4.846l-1.528 1.528c-.945.945-1.465 2.201-1.465 3.536v3.929l-12.293 12.293-1.414-1.414 6.707-6.707v-2.343c0-2.469-.961-4.79-2.707-6.536l1.414-1.414c2.124 2.124 3.293 4.947 3.293 7.95v.343l3-3v-3.101c0-1.87.728-3.627 2.05-4.95l1.528-1.528c.917-.916 1.422-2.135 1.422-3.432v-1.031c0-1.402 1.142-2.544 2.544-2.544.506 0 .996.149 1.416.43 1.511 1.012 2.528 2.566 2.887 4.309l3.825-3.825c.589-.589 1.373-.914 2.207-.914 1.271 0 2.362.766 2.849 1.858l.944-.944c.589-.589 1.373-.914 2.207-.914 1.721 0 3.121 1.4 3.121 3.121 0 .808-.31 1.565-.865 2.147 1.096.485 1.865 1.579 1.865 2.853 0 .808-.31 1.565-.865 2.147 1.096.485 1.865 1.579 1.865 2.853 0 .834-.325 1.618-.914 2.207l-8.02 8.02c-1.038 1.038-2.351 1.713-3.798 1.955l-3.808.635-11.914 11.062h30.454v-17.757c0-3.003 1.169-5.826 3.293-7.95l1.414 1.414c-1.746 1.746-2.707 4.067-2.707 6.536v17.757h10v-22.203c0-5.857-3.013-11.203-7.787-14.285z"/></svg>