<svg id="_x33_0" enable-background="new 0 0 64 64" height="512" viewBox="0 0 64 64" width="512" xmlns="http://www.w3.org/2000/svg"><g><path d="m19.733 21h.438c1.599 0 3.167-.551 4.417-1.552l1.77-1.415c.845-.676 1.869-1.033 2.961-1.033 2.054 0 3.829 1.279 4.463 3.184l.752 2.257c.751 2.257 2.261 4.124 4.286 5.324l.434-.435c.858-.858 2.002-1.33 3.222-1.33 1.25 0 2.372.465 3.217 1.31.845.844 1.31 1.967 1.309 3.161-.001 2.493-.919 4.78-2.59 6.527l7.52 7.521 2.583-3.101c4.182-5.017 6.485-11.377 6.485-17.908 0-11.31-9.2-20.51-20.509-20.51-2.208 0-4.39.354-6.486 1.053l-.791.263c-2.724.908-5.704.908-8.428 0l-3.153-1.05c-.527-.177-1.076-.266-1.633-.266-4.962 0-9 4.037-9 9v.3c0 4.797 3.917 8.7 8.733 8.7z"/><path d="m49.5 55c.511 0 1.01.054 1.5.14v-8.726l-9.414-9.414 1.261-1.261c1.389-1.389 2.154-3.235 2.156-5.2 0-.729-.256-1.349-.723-1.815-.467-.467-1.088-.724-1.747-.724-.741 0-1.383.264-1.862.743l-1.473 1.474-.645-.322c-2.819-1.409-4.919-3.832-5.915-6.821l-.752-2.257c-.363-1.088-1.375-1.817-2.521-1.817-.679 0-1.271.206-1.758.595l-1.771 1.416c-1.449 1.159-3.234 1.843-5.079 1.964-.492 1.687-.757 3.427-.757 5.187v3.622c0 1.552-.191 3.102-.567 4.607l-.263 1.051c.896.367 1.864.558 2.83.558h.781l1 4h5.219v1c0 1.534-.622 3.036-1.707 4.121l-.109.109c1.097 2.304 3.399 3.77 5.979 3.77.484 0 .967-.053 1.437-.157l8.183-1.819.434 1.953-2.217.492v.472c0 1.61-.783 3.132-2.093 4.068l-2.752 1.966c-1.118.799-2.016 1.829-2.645 3.024h7.77l.033-.099c1.175-3.528 4.466-5.9 8.187-5.9zm-21.947-21.105-5.241-2.62 3.981-3.981 1.414 1.414-2.019 2.019 2.759 1.38z"/><path d="m49.5 57c-2.667 0-5.046 1.586-6.087 4h12.174c-1.041-2.414-3.42-4-6.087-4z"/><path d="m19.103 60.673c-.285.214-.624.327-.982.327-.618 0-1.121-.503-1.121-1.121 0-.295.12-.584.328-.793l.758-.758c.581-.581.914-1.385.914-2.207 0-1.721-1.4-3.121-3.121-3.121h-.135c-.706 0-1.398.243-1.95.684l-3.358 2.687c-.398.318-.925.412-1.413.251-.611-.205-1.023-.776-1.023-1.422 0-.457.205-.884.562-1.169l3.303-2.643c.721-.576 1.135-1.438 1.135-2.362 0-1.669-1.357-3.026-3.026-3.026h-5.974c-.551 0-1-.448-1-1s.449-1 1-1h6.146c1.574 0 2.854-1.28 2.854-2.854 0-1.087-.604-2.065-1.578-2.553l-1.569-.784c-.526-.263-.853-.793-.853-1.382 0-.787.64-1.427 1.427-1.427.22 0 .441.052.638.15l3.487 1.744.895-1.789-3.489-1.745c-.474-.235-1.003-.36-1.531-.36-1.889 0-3.427 1.537-3.427 3.427 0 1.353.751 2.567 1.959 3.171l1.568.784c.292.145.473.438.473.764 0 .47-.383.854-.854.854h-6.146c-1.654 0-3 1.346-3 3s1.346 3 3 3h5.974c.566 0 1.026.46 1.026 1.026 0 .313-.141.605-.385.801l-3.303 2.643c-.834.668-1.312 1.663-1.312 2.73 0 1.508.961 2.841 2.396 3.319 1.13.376 2.359.156 3.29-.587l3.358-2.687c.198-.158.447-.245.7-.245h.135c.618 0 1.121.503 1.121 1.121 0 .295-.12.584-.328.793l-.758.758c-.581.581-.914 1.385-.914 2.207 0 1.721 1.4 3.121 3.121 3.121.782 0 1.558-.259 2.182-.728l3.297-2.472-1.2-1.6z"/><path d="m15 46h2v2h-2z"/><path d="m17 42h2v2h-2z"/><path d="m19 48h2v2h-2z"/><path d="m21 52h2v2h-2z"/></g></svg>