<svg id="_x33_0" enable-background="new 0 0 64 64" height="512" viewBox="0 0 64 64" width="512" xmlns="http://www.w3.org/2000/svg"><g><path d="m27.707 28.707-1.414-1.414-3.981 3.981 5.241 2.621.894-1.79-2.759-1.379z"/><path d="m53 55.764v-9.402l3.052-3.663c4.481-5.377 6.948-12.191 6.948-19.189 0-12.412-10.098-22.51-22.509-22.51-2.422 0-4.817.389-7.119 1.155l-.791.264c-2.314.771-4.847.771-7.163 0l-3.153-1.051c-.73-.244-1.493-.368-2.265-.368-6.065 0-11 4.935-11 11v.3c0 5.548 4.258 10.12 9.686 10.647-.449 1.702-.686 3.449-.686 5.215v3.622c0 1.388-.171 2.775-.508 4.123l-.657 2.629.929.464c1.073.536 2.251.865 3.447.967l1.008 4.033h4.646c-.174.641-.514 1.234-.986 1.707l-1.052 1.053.327.817c1.318 3.294 4.461 5.423 8.009 5.423.63 0 1.26-.069 1.871-.205l3.966-.881v.028c0 .967-.47 1.879-1.256 2.441l-2.752 1.966c-1.857 1.326-3.22 3.171-3.941 5.335l-.438 1.316h27.774l-.699-2.099c-.785-2.354-2.521-4.173-4.688-5.137zm-42-43.464v-.3c0-4.963 4.038-9 9-9 .557 0 1.106.089 1.633.266l3.153 1.05c2.724.908 5.704.908 8.428 0l.791-.263c2.096-.699 4.278-1.053 6.486-1.053 11.309 0 20.509 9.2 20.509 20.51 0 6.531-2.303 12.892-6.484 17.908l-2.583 3.101-7.52-7.521c1.67-1.747 2.588-4.034 2.59-6.527.001-1.194-.464-2.317-1.309-3.161-.845-.845-1.967-1.31-3.217-1.31-1.22 0-2.364.472-3.222 1.33l-.434.435c-2.025-1.2-3.535-3.067-4.286-5.324l-.752-2.257c-.635-1.905-2.41-3.184-4.464-3.184-1.092 0-2.116.357-2.961 1.033l-1.77 1.415c-1.25 1.001-2.818 1.552-4.417 1.552h-.438c-4.816 0-8.733-3.903-8.733-8.7zm30.279 48.7h-7.77c.629-1.195 1.527-2.226 2.645-3.024l2.752-1.966c1.311-.937 2.094-2.458 2.094-4.069v-.472l2.217-.493-.434-1.953-8.183 1.82c-.47.104-.953.157-1.437.157-2.58 0-4.882-1.466-5.979-3.77l.109-.109c1.085-1.085 1.707-2.587 1.707-4.121v-1h-5.219l-1-4h-.781c-.966 0-1.934-.191-2.83-.558l.263-1.051c.376-1.505.567-3.055.567-4.607v-3.622c0-1.76.265-3.5.758-5.187 1.845-.121 3.63-.805 5.079-1.964l1.771-1.416c.486-.389 1.078-.595 1.757-.595 1.146 0 2.158.729 2.52 1.816l.752 2.257c.996 2.989 3.096 5.412 5.915 6.821l.645.322 1.473-1.474c.48-.478 1.122-.742 1.863-.742.66 0 1.28.257 1.747.724.466.467.723 1.086.723 1.815-.001 1.965-.767 3.812-2.156 5.2l-1.261 1.261 9.414 9.414v8.726c-.49-.086-.989-.14-1.5-.14-3.721 0-7.012 2.372-8.188 5.901zm2.134 0c1.041-2.414 3.42-4 6.087-4s5.046 1.586 6.087 4z"/><path d="m19.103 60.673c-.285.214-.624.327-.982.327-.618 0-1.121-.503-1.121-1.121 0-.295.12-.584.328-.793l.758-.758c.581-.581.914-1.385.914-2.207 0-1.721-1.4-3.121-3.121-3.121h-.135c-.706 0-1.398.243-1.95.684l-3.358 2.687c-.398.318-.925.412-1.413.251-.611-.205-1.023-.776-1.023-1.422 0-.457.205-.884.562-1.169l3.303-2.643c.721-.576 1.135-1.438 1.135-2.362 0-1.669-1.357-3.026-3.026-3.026h-5.974c-.551 0-1-.448-1-1s.449-1 1-1h6.146c1.574 0 2.854-1.28 2.854-2.854 0-1.087-.604-2.065-1.578-2.553l-1.569-.784c-.526-.263-.853-.793-.853-1.382 0-.787.64-1.427 1.427-1.427.22 0 .441.052.638.15l3.487 1.744.895-1.789-3.489-1.745c-.474-.235-1.003-.36-1.531-.36-1.889 0-3.427 1.537-3.427 3.427 0 1.353.751 2.567 1.959 3.171l1.568.784c.292.145.473.438.473.764 0 .47-.383.854-.854.854h-6.146c-1.654 0-3 1.346-3 3s1.346 3 3 3h5.974c.566 0 1.026.46 1.026 1.026 0 .313-.141.605-.385.801l-3.303 2.643c-.834.668-1.312 1.663-1.312 2.73 0 1.508.961 2.841 2.396 3.319 1.13.376 2.359.156 3.29-.587l3.358-2.687c.198-.158.447-.245.7-.245h.135c.618 0 1.121.503 1.121 1.121 0 .295-.12.584-.328.793l-.758.758c-.581.581-.914 1.385-.914 2.207 0 1.721 1.4 3.121 3.121 3.121.782 0 1.558-.259 2.182-.728l3.297-2.472-1.2-1.6z"/><path d="m15 46h2v2h-2z"/><path d="m17 42h2v2h-2z"/><path d="m19 48h2v2h-2z"/><path d="m21 52h2v2h-2z"/></g></svg>