<svg height="480pt" viewBox="0 0 480.00289 480" width="480pt" xmlns="http://www.w3.org/2000/svg"><path d="m400.003906 383.523438c-13.28125 0-24 10.71875-24 24 0 13.277343 10.71875 24 24 24s24-10.722657 24-24c0-13.28125-10.71875-24-24-24zm64 24c0 11.679687-3.121094 22.636718-8.640625 32.078124-11.121093 19.121094-31.757812 31.921876-55.359375 31.921876-2.398437 0-4.800781-.160157-7.28125-.402344-28.160156-3.121094-51.597656-25.359375-55.917968-53.359375-.960938-6.238281-1.042969-12.320313-.320313-18.160157 2.558594-20.320312 14.558594-37.679687 31.519531-47.441406v-192.636718c0-.882813 0-1.839844.160156-2.722657.640626-7.679687 4-14.71875 9.199219-19.917969 1.601563-1.601562 3.359375-3.039062 5.28125-4.242187 5.039063-3.199219 10.960938-5.117187 17.359375-5.117187 17.679688 0 32 14.320312 32 32v192.636718c19.121094 11.042969 32 31.683594 32 55.363282zm0 0" fill="#ef6a74"/><path d="m424.003906 407.523438c0 13.253906-10.746094 24-24 24s-24-10.746094-24-24c0-13.257813 10.746094-24 24-24s24 10.742187 24 24zm0 0" fill="#ef6a74"/><path d="m400.003906 471.523438h-392c4.878906-24.402344 23.441406-43.839844 47.601563-49.921876l120.398437-30.078124 64 32 64-32 32.480469 8.078124c-.722656 5.839844-.640625 11.921876.320313 18.160157 4.320312 28 27.757812 50.238281 55.917968 53.359375 2.480469.242187 4.882813.402344 7.28125.402344zm0 0" fill="#99b6d1"/><path d="m382.644531 132.640625c-1.921875 1.203125-3.679687 2.640625-5.28125 4.242187-5.199219 5.199219-8.558593 12.238282-9.199219 19.917969-18.71875-6.480469-32.160156-24.320312-32.160156-45.277343v-8h-222.320312c-2.71875 0-5.359375-.242188-7.921875-.640626-.398438-.082031-.796875-.082031-1.117188-.160156-20.320312-3.679687-37.199219-19.359375-40.160156-40.242187-3.839844-27.359375 15.4375-51.039063 41.121094-54.480469 3.4375 9.042969 12.15625 15.523438 22.398437 15.523438h128c64.320313 0 117.519532 47.359374 126.640625 109.117187zm0 0" fill="#ffd961"/><path d="m144.003906 103.523438h192v8c0 20.957031 13.441406 38.796874 32.160156 45.277343-.160156.882813-.160156 1.839844-.160156 2.722657v121.917968c-14.082031 27.28125-36.558594 49.441406-64 63.121094-19.28125 9.597656-41.039062 14.960938-64 14.960938-23.039062 0-44.71875-5.441407-64-15.042969-47.441406-23.519531-80-72.480469-80-128.957031v-64c0-17.203126 3.121094-33.523438 8.640625-48.800782.320313.078125.71875.078125 1.117188.160156 2.5625.398438 5.203125.640626 7.921875.640626zm56 184h80c0-22.082032-17.921875-40-40-40-22.082031 0-40 17.917968-40 40zm0 0" fill="#f2f0ea"/><path d="m304.003906 344.5625v46.960938l-64 32-64-32v-47.042969c19.28125 9.601562 40.960938 15.042969 64 15.042969 22.960938 0 44.71875-5.363282 64-14.960938zm0 0" fill="#f2f0ea"/><path d="m280.003906 287.523438h-80c0-22.082032 17.917969-40 40-40 22.078125 0 40 17.917968 40 40zm0 0" fill="#ef6a74"/><path d="m96.003906 215.523438v8h-16c-8.800781 0-16.800781-3.601563-22.640625-9.363282-5.757812-5.839844-9.359375-13.839844-9.359375-22.636718 0-17.679688 14.320313-32 32-32h16zm0 0" fill="#f2f0ea"/><g fill="#292929"><path d="m216.003906 191.523438c0-3.035157-1.710937-5.800782-4.425781-7.160157l-48-24-7.160156 14.308594 33.699219 16.851563-33.691407 16.839843 7.160157 14.308594 48-24c2.707031-1.351563 4.417968-4.117187 4.417968-7.148437zm0 0"/><path d="m268.425781 198.683594 48 24 7.160157-14.3125-33.695313-16.847656 33.6875-16.839844-7.160156-14.3125-48 24c-2.703125 1.351562-4.414063 4.117187-4.414063 7.152344 0 3.03125 1.710938 5.796874 4.421875 7.160156zm0 0"/><path d="m472.003906 407.523438c0-24.027344-12.152344-46.523438-32-59.800782v-188.199218c0-22.058594-17.945312-40-40-40-3.878906 0-7.734375.589843-11.449218 1.710937-13.917969-60.9375-69.109376-105.710937-132.550782-105.710937h-128c-6.566406 0-12.558594-4.167969-14.921875-10.371094-1.320312-3.46875-4.910156-5.550782-8.542969-5.0859378-14.671874 1.9687498-28.222656 9.8789058-37.199218 21.7109378-9.0625 11.9375-12.886719 26.792968-10.785156 41.832031 2.96875 20.871094 17.929687 37.992187 37.945312 44.726563-4.222656 14.128906-6.496094 28.609374-6.496094 43.1875h-8c-22.054687 0-40 17.941406-40 40 0 10.582031 4.144532 20.621093 11.742188 28.335937 7.632812 7.519531 17.671875 11.664063 28.257812 11.664063h8.917969c5.1875 49.917968 34.378906 93.71875 79.082031 117.726562v36.023438l-114.351562 28.570312c-27.03125 6.796875-48.03125 28.828125-53.496094 56.109375-.472656 2.351563.144531 4.792969 1.65625 6.640625 1.527344 1.847656 3.792969 2.929688 6.191406 2.929688h464c2.390625 0 4.664063-1.074219 6.175782-2.921876 1.519531-1.839843 2.136718-4.28125 1.671874-6.625-2.28125-11.550781-7.511718-22.230468-15.03125-31.460937 4.625-9.617187 7.183594-20.179687 7.183594-30.992187zm-48-248v192.636718c0 2.859375 1.519532 5.503906 4 6.929688 17.273438 9.96875 28 28.535156 28 48.433594 0 9.902343-2.609375 19.597656-7.550781 28.054687-10.027344 17.238281-28.59375 27.945313-48.449219 27.945313-2.144531 0-4.289062-.144532-6.398437-.355469-24.585938-2.726563-45.152344-22.335938-48.898438-46.613281-.832031-5.425782-.917969-10.800782-.289062-15.953126 2.175781-17.3125 12.496093-32.832031 27.578125-41.503906 2.480468-1.425781 4.007812-4.070312 4.007812-6.9375v-192.636718c0-.433594-.03125-.898438.03125-1.328126l-7.871094-1.394531 7.96875.664063c.480469-5.65625 2.917969-10.960938 6.886719-14.925782 1.230469-1.234374 2.535157-2.28125 3.902344-3.144531 4-2.535156 8.53125-3.871093 13.082031-3.871093 13.230469 0 24 10.765624 24 24zm-93.726562 230.285156-18.273438-4.542969v-35.984375c18.609375-10.078125 35.015625-24.046875 48-40.742188v39.175782c-14.726562 9.839844-25.320312 24.96875-29.726562 42.09375zm-146.273438-33.054688c17.800782 7.113282 36.574219 10.769532 56 10.769532 19.496094 0 38.265625-3.632813 56-10.699219v29.753906l-56 28-56-28zm-111.601562-295.382812c-1.503906-10.777344 1.21875-21.410156 7.6875-29.921875 5.394531-7.113281 12.785156-12.113281 21.195312-14.429688 5.847656 8.878907 15.886719 14.503907 26.71875 14.503907h128c57.527344 0 107.320313 41.742187 117.847656 97.78125-.71875.625-1.457031 1.234374-2.144531 1.921874-3.992187 3.992188-6.925781 8.832032-8.910156 14.070313-11.464844-7.175781-18.792969-19.800781-18.792969-33.773437v-8c0-4.425782-3.578125-8-8-8h-222.320312c-2.144532 0-4.328125-.175782-6.382813-.496094-.441406-.089844-.863281-.144532-1.234375-.175782-17.75-3.210937-31.277344-16.671874-33.664062-33.480468zm7.601562 154.152344c-6.359375 0-12.410156-2.503907-16.945312-6.976563-4.550782-4.617187-7.054688-10.664063-7.054688-17.023437 0-13.234376 10.769532-24 24-24h8v48zm24 0v-64c0-13.59375 2.214844-27.097657 6.335938-40.273438 1.105468.070312 2.253906.273438 3.34375.273438h22.320312v32h16v-32h16v32h16v-32h16v32h16v-32h16v32h16v-32h16v32h16v-32h16v32h16v-32h16c0 21.78125 12.6875 41.261718 32 50.414062v117.535156c-13.273437 24.832032-34.359375 45.359375-59.558594 57.921875-18.824218 9.375-39.160156 14.128907-60.441406 14.128907-21.175781 0-41.511718-4.785157-60.449218-14.203126-46.597657-23.109374-75.550782-69.78125-75.550782-121.796874zm-46.464844 213.832031 117.519532-29.363281 61.359375 30.679687c1.128906.570313 2.363281.851563 3.585937.851563s2.457032-.28125 3.574219-.839844l61.363281-30.683594 23.230469 5.777344c-.105469 4.359375.046875 8.761718.726563 13.207031 2.738281 17.746094 12.433593 33.539063 26.097656 44.539063h-336.320313c6.617188-16.738282 21.070313-29.679688 38.863281-34.167969zm387.488282 34.167969c3.921875-3.144532 7.519531-6.707032 10.726562-10.640626 2.242188 3.351563 4.144532 6.902344 5.609375 10.640626zm0 0"/><path d="m368.003906 407.523438c0 17.644531 14.351563 32 32 32 17.648438 0 32-14.355469 32-32 0-14.875-10.230468-27.289063-24-30.867188v-185.132812h-16v185.132812c-13.769531 3.578125-24 15.992188-24 30.867188zm48 0c0 8.824218-7.175781 16-16 16-8.824218 0-16-7.175782-16-16 0-8.824219 7.175782-16 16-16 8.824219 0 16 7.175781 16 16zm0 0"/><path d="m192.003906 287.523438c0 4.421874 3.574219 8 8 8h80c4.421875 0 8-3.578126 8-8 0-26.472657-21.527344-48-48-48s-48 21.527343-48 48zm48-32c14.878906 0 27.433594 10.207031 30.984375 24h-61.96875c3.550781-13.792969 16.105469-24 30.984375-24zm0 0"/><path d="m104.003906 431.523438h16v16h-16zm0 0"/><path d="m136.003906 431.523438h16v16h-16zm0 0"/><path d="m168.003906 431.523438h16v16h-16zm0 0"/></g></svg>