<?xml version="1.0" standalone="no"?>
<!DOCTYPE svg PUBLIC "-//W3C//DTD SVG 20010904//EN"
 "http://www.w3.org/TR/2001/REC-SVG-20010904/DTD/svg10.dtd">
<svg version="1.0" xmlns="http://www.w3.org/2000/svg"
 width="1170.000000pt" height="1280.000000pt" viewBox="0 0 1170.000000 1280.000000"
 preserveAspectRatio="xMidYMid meet">
<metadata>
Created by potrace 1.15, written by Peter Selinger 2001-2017
</metadata>
<g transform="translate(0.000000,1280.000000) scale(0.100000,-0.100000)"
fill="#000000" stroke="none">
<path d="M3445 11506 c-371 -86 -624 -392 -626 -756 -1 -237 76 -417 249 -581
153 -146 315 -209 532 -209 309 0 561 154 696 425 67 136 88 231 82 385 -4
106 -10 138 -35 212 -87 251 -270 427 -528 508 -90 28 -282 36 -370 16z"/>
<path d="M7600 11119 c-116 -17 -204 -64 -289 -154 -55 -58 -105 -152 -116
-216 -5 -31 -19 -51 -62 -92 -160 -151 -243 -346 -243 -572 0 -188 51 -338
166 -484 103 -132 249 -227 419 -273 110 -29 278 -29 390 1 270 71 471 267
556 541 20 64 24 97 24 215 0 119 -3 151 -23 215 -46 144 -137 292 -226 365
-34 27 -45 45 -54 83 -56 243 -296 407 -542 371z"/>
<path d="M2905 10202 c-177 -19 -508 -95 -683 -157 -299 -104 -513 -250 -583
-399 l-29 -61 0 -1747 0 -1746 -162 -4 c-157 -3 -165 -4 -211 -31 -30 -18 -54
-42 -67 -67 -20 -39 -20 -55 -18 -2398 l3 -2359 29 -37 c37 -49 85 -69 152
-64 63 5 118 43 143 97 15 33 16 218 16 2258 l0 2223 105 0 c105 0 105 0 148
-35 128 -101 319 -100 450 3 49 39 87 94 112 163 20 53 20 86 20 1496 l0 1443
100 0 100 0 0 -3607 c0 -2397 4 -3623 11 -3652 29 -126 136 -258 254 -312 264
-119 555 17 639 300 14 49 16 244 16 2038 l0 1983 150 0 150 0 0 -1978 c0
-1721 2 -1985 15 -2035 60 -232 278 -379 511 -346 188 26 348 180 385 369 10
50 11 795 6 3652 l-6 3588 102 0 102 0 0 -1443 0 -1442 26 -61 c32 -78 72
-127 134 -169 222 -148 512 -22 555 241 6 33 10 82 10 109 0 43 43 150 321
795 176 410 375 874 442 1032 l122 288 158 0 159 0 -7 -32 c-7 -34 -504 -2124
-575 -2418 -67 -276 -480 -2013 -487 -2042 l-5 -28 486 0 486 0 0 -1067 c0
-603 4 -1096 10 -1132 19 -137 107 -252 238 -314 61 -29 76 -32 162 -32 86 0
101 3 162 32 89 42 148 98 194 186 l39 72 5 1125 5 1125 205 0 205 0 5 -1125
5 -1125 26 -55 c149 -315 576 -317 734 -5 l30 60 5 1125 5 1125 489 3 488 2
-7 28 c-4 15 -124 518 -267 1117 -142 600 -381 1598 -529 2219 -148 622 -269
1136 -269 1143 0 10 35 13 159 13 l160 0 25 -82 c13 -46 93 -315 176 -598 403
-1368 463 -1568 487 -1610 36 -62 91 -113 160 -146 51 -25 69 -29 148 -29 82
0 97 3 158 33 45 23 82 50 114 87 l48 55 88 0 87 0 0 -2287 0 -2287 21 -43
c38 -79 138 -115 222 -79 42 17 83 66 97 114 14 52 14 4752 0 4804 -14 48 -55
97 -97 114 -23 10 -85 14 -223 14 -104 0 -190 2 -190 5 0 2 -93 318 -206 702
-113 384 -262 889 -331 1123 -300 1022 -298 1014 -405 1126 -104 108 -262 204
-462 278 -111 42 -318 97 -449 120 l-87 15 -47 -50 c-178 -191 -453 -291 -711
-260 -178 22 -344 98 -468 214 l-62 58 -82 -21 c-301 -77 -529 -187 -690 -333
-38 -34 -92 -79 -120 -100 -28 -21 -66 -61 -84 -90 -18 -29 -131 -283 -252
-564 l-219 -513 -5 848 -5 847 -27 55 c-111 227 -553 436 -1113 529 -192 32
-173 35 -253 -40 -120 -114 -236 -180 -387 -220 -112 -30 -298 -30 -410 0
-151 40 -270 107 -390 221 -59 55 -75 65 -100 62z"/>
</g>
</svg>
